# xmcd
#
# Track frame offsets: 
#        150
#        3152
#        56104
#        81906
#        108008
#        111160
#        118962
#        136964
#        181216
#
# Disc length: 2642 seconds
#
# Revision: 0
# Processed by: cddbd v1.5.2PL0 Copyright (c) Steve Scherf et al.
# Submitted via: ExactAudioCopyFreeDBPlugin 1.0
#
DISCID=710a5009
DTITLE=Richard Treece - Dream Arena East
DYEAR=2000
DGENRE=Psychedelic Rock
TTITLE0=Carnipreamble
TTITLE1=The Great Whale Hunt
TTITLE2=Backward Rap
TTITLE3=Flaming Night Towers
TTITLE4=Carnidance
TTITLE5=Thin Ice
TTITLE6=Look to the Skies
TTITLE7=Season of Turmoil
TTITLE8=Moving Out
EXTD=
EXTT0=
EXTT1=
EXTT2=
EXTT3=
EXTT4=
EXTT5=
EXTT6=
EXTT7=
EXTT8=
PLAYORDER=
